<svg xmlns="http://www.w3.org/2000/svg" width="32.058" height="36.073" viewBox="0 0 32.058 36.073"><defs><style>.a{fill:#004da4;}</style></defs><path class="a" d="M128.656,122.4l3.595,2.042a6.867,6.867,0,0,1-2.593,1.541.991.991,0,0,0-.639,1.265,1.023,1.023,0,0,0,1.29.639,9.469,9.469,0,0,0,3.77-2.4l8.054,4.559-8.041,4.559a8.784,8.784,0,0,0-3.783-2.4,1.016,1.016,0,0,0-1.29.626.991.991,0,0,0,.639,1.265,6.868,6.868,0,0,1,2.618,1.541l-3.607,2.042a.994.994,0,0,0-.376,1.365,1.028,1.028,0,0,0,1.39.363l3.595-2a6.665,6.665,0,0,1,.063,2.981,1.006,1.006,0,0,0,.8,1.177,1.017,1.017,0,0,0,1.2-.777,9.321,9.321,0,0,0-.225-4.409l8.054-4.6v9.144a9.486,9.486,0,0,0-3.945,2.017,1,1,0,1,0,1.328,1.5,6.7,6.7,0,0,1,2.618-1.44v4.083a1,1,0,1,0,2,0v-4.1a6.652,6.652,0,0,1,2.618,1.453,1,1,0,0,0,1.328-1.5,8.67,8.67,0,0,0-3.946-2.017v-9.144l8.079,4.584a9.5,9.5,0,0,0-.238,4.409,1.022,1.022,0,0,0,2-.4,6.489,6.489,0,0,1,.063-2.981l3.582,2.054a1.028,1.028,0,0,0,1.39-.363.994.994,0,0,0-.376-1.365l-3.607-2.042a6.82,6.82,0,0,1,2.605-1.541,1,1,0,0,0,.639-1.265,1.021,1.021,0,0,0-1.29-.626,8.9,8.9,0,0,0-3.783,2.4l-8.054-4.572,8.066-4.572a9.7,9.7,0,0,0,3.77,2.4,1.028,1.028,0,0,0,1.29-.639.991.991,0,0,0-.639-1.265,6.867,6.867,0,0,1-2.593-1.541l3.595-2.042a.994.994,0,0,0,.376-1.365,1.028,1.028,0,0,0-1.39-.363l-3.607,2.042a6.37,6.37,0,0,1-.05-2.994,1.006,1.006,0,0,0-.8-1.177,1.016,1.016,0,0,0-1.2.789,8.566,8.566,0,0,0,.238,4.421l-8.079,4.584V119.19a8.67,8.67,0,0,0,3.946-2.017,1,1,0,0,0-1.328-1.5,6.653,6.653,0,0,1-2.618,1.453V113a1,1,0,1,0-2,0v4.083a6.786,6.786,0,0,1-2.618-1.44,1,1,0,0,0-1.328,1.5,9.513,9.513,0,0,0,3.933,2.017v9.156l-8.066-4.572a8.563,8.563,0,0,0,.225-4.421,1.035,1.035,0,0,0-1.2-.789,1.006,1.006,0,0,0-.8,1.177,6.715,6.715,0,0,1-.05,2.994l-3.607-2.042a1.028,1.028,0,0,0-1.39.363A1.014,1.014,0,0,0,128.656,122.4Z" transform="translate(-128.133 -112)"/></svg>