<svg xmlns="http://www.w3.org/2000/svg" width="35" height="35" viewBox="0 0 35 35"><g transform="translate(-64 -64)"><path d="M360.37,170.507a3.8,3.8,0,0,0-1.943-2.235A3.023,3.023,0,0,0,357.18,168c-1.825,0-3.68,1.7-4.615,4.234-1.157,3.137-.484,6.21,1.565,7.148a3.129,3.129,0,0,0,1.312.285c1.859,0,3.748-1.56,4.7-3.882A7.455,7.455,0,0,0,360.37,170.507Zm-1.605,4.63c-.714,1.722-2.1,2.926-3.36,2.926a1.745,1.745,0,0,1-.726-.154c-1.287-.583-1.628-2.831-.776-5.118.709-1.9,2.046-3.222,3.252-3.222a1.63,1.63,0,0,1,.669.145,2.335,2.335,0,0,1,1.144,1.344A5.686,5.686,0,0,1,358.765,175.136Z" transform="translate(-261.75 -94.521)"/><path d="M72.186,172.234C71.251,169.7,69.4,168,67.571,168a3.023,3.023,0,0,0-1.248.271,3.8,3.8,0,0,0-1.943,2.235,7.455,7.455,0,0,0,.227,5.278c.953,2.322,2.842,3.882,4.7,3.882a3.129,3.129,0,0,0,1.312-.285C72.671,178.444,73.344,175.371,72.186,172.234Zm-2.114,5.673a1.745,1.745,0,0,1-.726.154c-1.264,0-2.646-1.2-3.36-2.926a5.687,5.687,0,0,1-.2-4.081,2.335,2.335,0,0,1,1.144-1.344,1.631,1.631,0,0,1,.669-.145c1.206,0,2.544,1.325,3.252,3.222C71.7,175.077,71.359,177.325,70.072,177.907Z" transform="translate(0 -94.521)"/><path d="M146.9,77.362a3.59,3.59,0,0,0,.507-.014,3.776,3.776,0,0,0,2.571-1.459c1.128-1.385,1.441-3.552,1.2-5.782-.363-3.436-2.174-6-4.607-6.107,0,0-.347,0-.524.018a4.157,4.157,0,0,0-2.822,1.613,7.555,7.555,0,0,0-1.44,5.478c.359,3.4,2.6,6.144,5.112,6.253Zm-2.488-10.825a2.73,2.73,0,0,1,1.788-1.046,2.2,2.2,0,0,1,.31-.009c1.659.072,2.9,2.121,3.184,4.779.2,1.837-.013,3.651-.9,4.719a2.275,2.275,0,0,1-1.539.9,2.125,2.125,0,0,1-.294.008c-1.755-.076-3.41-2.287-3.689-4.928A6.044,6.044,0,0,1,144.413,66.537Z" transform="translate(-70.656)"/><path d="M139.667,240C133.833,240,128,246.934,128,253.592a5.23,5.23,0,0,0,1.975,4.24,5.846,5.846,0,0,0,3.831,1.126,5.153,5.153,0,0,0,3.658-1.386,3.207,3.207,0,0,1,4.4,0,5.153,5.153,0,0,0,3.658,1.386,5.845,5.845,0,0,0,3.831-1.126,5.23,5.23,0,0,0,1.975-4.24C151.333,246.934,145.5,240,139.667,240Zm8.929,16.477a4.5,4.5,0,0,1-3.069.891,3.2,3.2,0,0,1-2.362-.776c-.168-.122-.343-.249-.542-.381a4.508,4.508,0,0,0-5.913,0c-.2.131-.374.258-.542.381a3.2,3.2,0,0,1-2.362.776,4.5,4.5,0,0,1-3.069-.891,3.6,3.6,0,0,1-1.279-2.885,13.406,13.406,0,0,1,3.261-8.278,12.335,12.335,0,0,1,3.329-2.815,6.807,6.807,0,0,1,7.235,0,12.332,12.332,0,0,1,3.329,2.815,13.405,13.405,0,0,1,3.262,8.278A3.6,3.6,0,0,1,148.6,256.477Z" transform="translate(-58.166 -159.958)"/><path d="M269.906,77.332a3.576,3.576,0,0,0,.507.014c2.508-.109,4.753-2.856,5.112-6.253a7.555,7.555,0,0,0-1.44-5.478,4.045,4.045,0,0,0-2.785-1.585c-.177-.017-.56-.028-.56-.028-2.433.106-4.244,2.654-4.607,6.09-.237,2.23.076,4.4,1.2,5.782a3.776,3.776,0,0,0,2.571,1.459Zm-2.287-7.088c.28-2.657,1.525-4.706,3.184-4.779a2.19,2.19,0,0,1,.31.009,2.729,2.729,0,0,1,1.788,1.046,6.045,6.045,0,0,1,1.136,4.419c-.279,2.641-1.934,4.852-3.689,4.928a2.125,2.125,0,0,1-.294-.008,2.276,2.276,0,0,1-1.539-.9C267.632,73.9,267.423,72.081,267.619,70.244Z" transform="translate(-183.641 -0.001)"/></g></svg>