<svg xmlns="http://www.w3.org/2000/svg" width="40.7" height="37.987" viewBox="0 0 40.7 37.987"><path d="M56.022,65.917H50.6V53.707h4.07v2.035a.678.678,0,1,0,1.357,0V53.028a.678.678,0,0,0-.678-.678H46.525V36.07h1.357a.678.678,0,0,0,.678-.678V32.678A.678.678,0,0,0,47.882,32H24.818a.678.678,0,0,0-.678.678v2.713a.678.678,0,0,0,.678.678h1.357V52.35H23.683l1.11-3.883a.678.678,0,0,0-.652-.865H21.708L23.6,45.707a.678.678,0,1,0-.959-.959l-.877.877L19.871,43.73a.678.678,0,0,0-.959.959l1.895,1.895L19.789,47.6H18.035a.678.678,0,0,0-.652.865l1.11,3.883H17.357a.678.678,0,0,0-.678.678v2.713a.678.678,0,1,0,1.357,0V53.707h4.07v12.21H16.678A.678.678,0,0,0,16,66.6v2.713a.678.678,0,0,0,.678.678H56.022a.678.678,0,0,0,.678-.678V66.6A.678.678,0,0,0,56.022,65.917Zm-6.783-12.21v12.21h-4.07V53.707ZM37.028,52.35V44.888h8.14V52.35Zm6.783,1.357v12.21h-4.07V53.707ZM27.532,52.35V44.888h8.14V52.35Zm5.427,1.357v12.21h-4.07V53.707ZM27.532,43.532V36.07h8.14v7.462Zm6.783,10.175h4.07v12.21h-4.07Zm2.713-10.175V36.07h8.14v7.462ZM25.5,34.713V33.357H47.2v1.357ZM23.462,53.707h4.07v12.21h-4.07ZM19.9,52.35l-.969-3.392h4.306l-.969,3.392Zm35.44,16.28H17.357V67.274H55.344Z" transform="translate(-16 -32)"/></svg>