<svg xmlns="http://www.w3.org/2000/svg" width="27.5" height="38.5" viewBox="0 0 27.5 38.5"><g transform="translate(-12 -4)"><path d="M38.125,17.75H25.063a1.376,1.376,0,0,0-1.375,1.375V20.5H21.625V6.063A2.065,2.065,0,0,0,19.563,4h-5.5A2.065,2.065,0,0,0,12,6.063V26.688a3.443,3.443,0,0,0,2.75,3.368V41.813a.687.687,0,0,0,.688.688h19.25a.687.687,0,0,0,.611-1,23.818,23.818,0,0,1-2.677-11.372h0A6.883,6.883,0,0,0,39.5,23.25V19.125a1.376,1.376,0,0,0-1.375-1.375ZM25.063,19.125H38.125V20.5H25.063Zm-11.687-11H20.25V20.5H13.375Zm.688-2.75h5.5a.688.688,0,0,1,.688.688V6.75H13.375V6.063a.688.688,0,0,1,.687-.687Zm17.895,31.1a25.443,25.443,0,0,0,1.628,4.649H16.125v-11H31.232a25.437,25.437,0,0,0,.725,6.351ZM38.125,23.25a5.506,5.506,0,0,1-5.5,5.5H15.438a2.065,2.065,0,0,1-2.062-2.062V21.875h24.75Z"/><path d="M21.063,11H19.688a.687.687,0,0,0-.687.688v.688a.688.688,0,0,0,1.375,0h.688a.688.688,0,0,0,0-1.375Z" transform="translate(-2.188 -2.188)"/></g></svg>