<svg xmlns="http://www.w3.org/2000/svg" width="36.75" height="37.786" viewBox="0 0 36.75 37.786"><g transform="translate(-646.65 -776.13) rotate(-39)"><path d="M5.5,1a.5.5,0,0,0-.5.5v6a.5.5,0,0,0,.5.5h4a.5.5,0,0,0,.484-.377L10.391,6h1.3l.361.725A.5.5,0,0,0,12.5,7h.559l.445,3.563A.5.5,0,0,0,14,11V30.5a.5.5,0,0,0,.5.5h3a.5.5,0,0,0,.5-.5V11a.5.5,0,0,0,.5-.437L18.941,7H19a2,2,0,0,1,1.121.344.5.5,0,0,0,.068.039l.06.027,5.416,3.375a1.545,1.545,0,0,0,2.135-.553,1.457,1.457,0,0,0,.129-1.16,1.959,1.959,0,0,0-.621-.895L21.863,3.541l-.016-.016h0A4.75,4.75,0,0,0,18.508,2H12.5a.5.5,0,0,0-.447.275L11.691,3H10.473L9.979,1.357A.5.5,0,0,0,9.5,1h-4ZM6,2H9.129l.492,1.643A.5.5,0,0,0,10.1,4H12a.5.5,0,0,0,.447-.277L12.809,3h5.7a3.725,3.725,0,0,1,2.633,1.23h0l.031.029.027.025L26.66,8.934a1.02,1.02,0,0,1,.314.436.38.38,0,0,1-.037.354.543.543,0,0,1-.744.209L20.752,6.541a.5.5,0,0,0-.053-.029l-.088-.041A3.02,3.02,0,0,0,19,6h-.5a.5.5,0,0,0-.5.439L17.559,10H14.441L14,6.439A.5.5,0,0,0,13.5,6h-.691l-.361-.723A.5.5,0,0,0,12,5H10a.5.5,0,0,0-.484.379L9.109,7H6Zm9,9h2V30H15Z" transform="translate(0 1020.362)"/></g></svg>