<svg xmlns="http://www.w3.org/2000/svg" width="27.4" height="48" viewBox="0 0 27.4 48"><defs><style>.a{fill:#004da4;}</style></defs><g transform="translate(-14.3 -4)"><path class="a" d="M40.7,11H15.3a.945.945,0,0,0-1,1V44a.945.945,0,0,0,1,1H40.7a.945.945,0,0,0,1-1V12A1,1,0,0,0,40.7,11Zm-1,32H31.8V36.6h.7a1,1,0,0,0,1-1V28.5a2.689,2.689,0,0,0-2.7-2.7H25.2a2.689,2.689,0,0,0-2.7,2.7v7.1a1,1,0,0,0,1,1h.7V43H16.3V13H39.7V43Zm-9.2,4.1L28,49.6l-2.5-2.5a.99.99,0,0,0-1.4,1.4l3.2,3.2a1.08,1.08,0,0,0,.7.3.908.908,0,0,0,.7-.3l3.2-3.2a.99.99,0,0,0-1.4-1.4Zm-5-38.2L28,6.4l2.5,2.5a1.08,1.08,0,0,0,.7.3.908.908,0,0,0,.7-.3.967.967,0,0,0,0-1.4L28.7,4.3a.967.967,0,0,0-1.4,0L24.1,7.5a.99.99,0,0,0,1.4,1.4Z"/><circle class="a" cx="3.7" cy="3.7" r="3.7" transform="translate(24.3 16.4)"/></g></svg>