<svg xmlns="http://www.w3.org/2000/svg" width="42.956" height="40.025" viewBox="0 0 42.956 40.025"><defs><style>.a{fill-rule:evenodd;}</style></defs><path class="a" d="M24.263,42.684l-.785.344-.785-.344C12.6,36.5,2,22.421,2,14.6A11.723,11.723,0,0,1,23.478,8.224,11.723,11.723,0,0,1,44.956,14.6C44.956,22.421,34.352,36.5,24.263,42.684ZM33.241,4.946A9.769,9.769,0,0,0,25.1,9.3l-1.625,2.434L21.853,9.3a9.77,9.77,0,0,0-17.9,5.3c0,6.9,9.991,20.314,19.525,26.278C33.012,34.916,43,21.5,43,14.612A9.763,9.763,0,0,0,33.241,4.946Z" transform="translate(-2 -3.002)"/></svg>