<svg xmlns="http://www.w3.org/2000/svg" width="31.016" height="30.99" viewBox="0 0 31.016 30.99"><g transform="translate(-0.453 -0.503)"><path d="M12.24,31.494a9.274,9.274,0,0,1-1.752-.27,6.429,6.429,0,0,1-2.156-1.078A7.775,7.775,0,0,1,7.254,28.8a4.91,4.91,0,0,1-.4-4.312l.27-.674a7.684,7.684,0,0,1-1.752-.135A2.8,2.8,0,0,1,3.751,23a6.226,6.226,0,0,1-.943-.943,3.55,3.55,0,0,1-.4-2.83,3.87,3.87,0,0,1,1.078-1.752,2.8,2.8,0,0,1-1.348-.809,8.719,8.719,0,0,1-1.078-1.213,4.424,4.424,0,0,1-.27-3.908,5.781,5.781,0,0,1,2.83-3.1,5.885,5.885,0,0,1,3.639-.674,8.019,8.019,0,0,1-.135-3.1A4.276,4.276,0,0,1,9.006,1.712a4.878,4.878,0,0,1,3.1-.4,4.333,4.333,0,0,1,2.83,2.021,5.051,5.051,0,0,1,2.291-2.156A6.386,6.386,0,0,1,21.4.634a4.851,4.851,0,0,1,3.234,2.291l.135.135a5.388,5.388,0,0,1,.539,4.312h.135a6.174,6.174,0,0,1,2.291.135,4.184,4.184,0,0,1,2.7,2.021c0,.135.135.135.135.27a3.437,3.437,0,0,1,.135,2.83,5.433,5.433,0,0,1-1.887,2.426c.135.135.27.135.4.27A7.063,7.063,0,0,1,30.568,16.8l.27.4a5.61,5.61,0,0,1,.4,4.178,5.23,5.23,0,0,1-2.7,3.369,5.3,5.3,0,0,1-4.312.27.5.5,0,0,1-.4-.135,8.9,8.9,0,0,1-.135,1.887A4.1,4.1,0,0,1,21.943,29.2a3.715,3.715,0,0,1-2.965.4,4.529,4.529,0,0,1-1.887-1.078,6.319,6.319,0,0,1-2.426,2.56,13.013,13.013,0,0,1-2.426.4ZM8.467,22.2a.7.7,0,0,1,.539.27.859.859,0,0,1,0,.809L8.2,24.486l-.135.4a3.608,3.608,0,0,0,.27,3.1,7.475,7.475,0,0,1,.809,1.078,5.926,5.926,0,0,0,1.617.809,4.386,4.386,0,0,0,3.234-.27,4.519,4.519,0,0,0,2.021-2.426v-.135c0-.27.27-.4.539-.539a.593.593,0,0,1,.674.135,5.347,5.347,0,0,0,2.021,1.482,1.842,1.842,0,0,0,1.887-.27,3.679,3.679,0,0,0,1.213-1.617,8.146,8.146,0,0,0,0-2.56c0-.27,0-.539.27-.674a.859.859,0,0,1,.809,0,3.33,3.33,0,0,0,1.213.539,4.361,4.361,0,0,0,3.234-.135,4.37,4.37,0,0,0,2.021-2.56,4.129,4.129,0,0,0-.4-3.1v-.27a2.5,2.5,0,0,0-.943-1.078c-.4-.27-.809-.4-1.213-.674a.764.764,0,0,1,0-1.348,3.825,3.825,0,0,0,2.291-2.291A2.318,2.318,0,0,0,29.49,10.2a.132.132,0,0,0-.135-.135A2.374,2.374,0,0,0,27.6,8.854a3.8,3.8,0,0,0-1.752,0l-1.348.27c-.27,0-.539,0-.674-.27a1.01,1.01,0,0,1-.135-.674L24.1,7.1a3.508,3.508,0,0,0-.4-3.234l-.135-.135a3.624,3.624,0,0,0-2.426-1.752,4.477,4.477,0,0,0-3.234.4,3.619,3.619,0,0,0-2.021,2.426v.4a.58.58,0,0,1-.539.539.741.741,0,0,1-.674-.4l-.539-1.078a3.72,3.72,0,0,0-2.156-1.617,3.222,3.222,0,0,0-2.291.27A2.636,2.636,0,0,0,8.467,4.946a5.091,5.091,0,0,0,.539,3.1l.27.4a.848.848,0,0,1,0,.809.755.755,0,0,1-.809.135l-.943-.27a4.643,4.643,0,0,0-3.234.4,5.436,5.436,0,0,0-2.156,2.426,2.735,2.735,0,0,0,.135,2.7,2.525,2.525,0,0,0,.809.943,3.074,3.074,0,0,0,1.617.809l.4.135c.27.135.4.27.4.539s0,.539-.27.674l-.674.539a2.832,2.832,0,0,0-.943,1.482,1.782,1.782,0,0,0,.27,1.617,1.052,1.052,0,0,0,.539.539,1.791,1.791,0,0,0,.943.4,4.483,4.483,0,0,0,2.7-.135h.4Zm7.277-2.56a3.156,3.156,0,0,1-2.426-1.078,3.156,3.156,0,0,1-1.078-2.426,3.623,3.623,0,0,1,1.078-2.426,3.459,3.459,0,0,1,2.426-.943,3.874,3.874,0,0,1,2.426.943,3.375,3.375,0,0,1,1.078,2.426,2.961,2.961,0,0,1-1.078,2.426A2.926,2.926,0,0,1,15.744,19.635Zm0-5.525a2.59,2.59,0,0,0-1.617.539,2.164,2.164,0,0,0-.674,1.482,2.227,2.227,0,0,0,3.773,1.482,1.931,1.931,0,0,0,.674-1.482,1.717,1.717,0,0,0-.674-1.482A2.826,2.826,0,0,0,15.744,14.11Z" transform="translate(0 0)"/><path d="M6.577,19.063a.7.7,0,0,1-.539-.27.666.666,0,0,1,.135-.943l5.795-4.312a.674.674,0,1,1,.809,1.078L6.981,18.928a.5.5,0,0,1-.4.135Z" transform="translate(1.89 4.48)"/><path d="M12.982,23.129a.617.617,0,0,1-.674-.539L11.5,14.774a.61.61,0,1,1,1.213-.135l.809,7.816C13.656,22.859,13.387,23.129,12.982,23.129Z" transform="translate(3.84 4.726)"/><path d="M3.974,13.821a.674.674,0,0,1,0-1.348l7.681-.674a.674.674,0,0,1,0,1.348l-7.681.674Z" transform="translate(0.99 3.927)"/><path d="M12.3,12.551a.5.5,0,0,1-.4-.135L6.373,7.3a.628.628,0,1,1,.809-.943l5.525,4.986a.651.651,0,0,1,0,.943C12.706,12.551,12.437,12.551,12.3,12.551Z" transform="translate(1.96 1.963)"/><path d="M11.474,13.072A.637.637,0,0,1,10.8,12.4V3.774a.674.674,0,1,1,1.348,0V12.4A.637.637,0,0,1,11.474,13.072Z" transform="translate(3.597 0.903)"/><path d="M13.587,12.652a1.022,1.022,0,0,1-.539-.27.577.577,0,0,1,.135-.943l6.334-5.39a.577.577,0,0,1,.943.135.577.577,0,0,1-.135.943l-6.334,5.39C13.992,12.652,13.857,12.652,13.587,12.652Z" transform="translate(4.313 1.862)"/><path d="M14.274,13.091a.617.617,0,0,1-.674-.539.91.91,0,0,1,.539-.809l8.49-.943a.91.91,0,0,1,.809.539.91.91,0,0,1-.539.809l-8.625.943Z" transform="translate(4.57 3.579)"/><path d="M19.116,20.021a.81.81,0,0,1-.539-.135L13.052,14.5A.667.667,0,1,1,14,13.552l5.525,5.39a.651.651,0,0,1,0,.943.59.59,0,0,1-.4.135Z" transform="translate(4.309 4.465)"/></g></svg>