<svg xmlns="http://www.w3.org/2000/svg" width="47.998" height="36.718" viewBox="0 0 47.998 36.718"><defs><style>.a{fill:#222;}</style></defs><g transform="translate(-2.159 -8.932)"><path class="a" d="M40.876,32.508c-4.963,0-7.171-4.682-7.444-7.829-.153-1.746-.508-5.836,1.879-8.44a7.2,7.2,0,0,1,5.565-2.134,1.2,1.2,0,0,1,0,2.409,4.854,4.854,0,0,0-3.789,1.353c-1.671,1.823-1.38,5.173-1.255,6.6.137,1.566,1.308,5.628,5.044,5.628a1.2,1.2,0,1,1,0,2.409Z" transform="translate(-6.134 -1.016)"/><path class="a" d="M38.914,32.508a1.2,1.2,0,0,1,0-2.409c3.736,0,4.907-4.063,5.044-5.628.124-1.43.415-4.781-1.257-6.6a4.851,4.851,0,0,0-3.787-1.352,1.2,1.2,0,1,1,0-2.409,7.2,7.2,0,0,1,5.564,2.133c2.387,2.6,2.032,6.694,1.88,8.441C46.085,27.826,43.876,32.508,38.914,32.508ZM24.706,46.666a1.2,1.2,0,0,1-1.194-1.06c-.433-3.6.021-6.174,1.387-7.869a6.9,6.9,0,0,1,5.024-2.349c4.046-.382,5.209-1.489,4.979-4.74a1.2,1.2,0,1,1,2.4-.17c.411,5.806-3.387,6.953-7.157,7.309a4.6,4.6,0,0,0-3.374,1.463c-.925,1.146-1.217,3.188-.871,6.069a1.205,1.205,0,0,1-1.2,1.348Z" transform="translate(-4.172 -1.016)"/><path class="a" d="M50.506,45.242c-.037,0-.074,0-.111-.005A1.2,1.2,0,0,1,49.3,43.929c.508-5.587-1.211-6.881-4.149-7.158-3.769-.355-7.568-1.5-7.158-7.309a1.2,1.2,0,1,1,2.4.17c-.23,3.25.934,4.358,4.98,4.74,6.409.6,6.679,5.868,6.323,9.775a1.206,1.206,0,0,1-1.2,1.1ZM17.068,24.784c-4.3,0-6.208-4.037-6.444-6.751-.13-1.492-.434-4.986,1.629-7.236a6.231,6.231,0,0,1,4.815-1.854,1.2,1.2,0,0,1,0,2.409,3.9,3.9,0,0,0-3.039,1.073c-1.346,1.469-1.107,4.223-1,5.4.11,1.266,1.051,4.55,4.044,4.55a1.2,1.2,0,0,1,0,2.409Z" transform="translate(-1.648 0)"/><path class="a" d="M18.376,24.784a1.2,1.2,0,1,1,0-2.409c2.992,0,3.933-3.285,4.043-4.55.093-1.075.343-3.929-1-5.4a3.9,3.9,0,0,0-3.039-1.073,1.2,1.2,0,1,1,0-2.409A6.229,6.229,0,0,1,23.191,10.8c2.063,2.251,1.758,5.743,1.627,7.235C24.583,20.747,22.673,24.784,18.376,24.784Z" transform="translate(-2.955 0)"/><path class="a" d="M3.487,39.817a1.2,1.2,0,0,1-1.195-1.061C1.923,35.677,2.318,33.468,3.5,32A5.978,5.978,0,0,1,7.851,29.96c3.334-.315,4.2-1.126,4.008-3.775a1.2,1.2,0,1,1,2.4-.17c.358,5.042-2.926,6.036-6.185,6.343a3.689,3.689,0,0,0-2.7,1.157c-.742.921-.975,2.587-.691,4.953a1.2,1.2,0,0,1-1.2,1.348Zm23.788-.342c-.037,0-.074,0-.111-.005a1.2,1.2,0,0,1-1.091-1.309c.458-5.027-1.305-5.613-3.311-5.8-3.259-.307-6.541-1.3-6.185-6.343a1.2,1.2,0,1,1,2.4.169c-.187,2.649.674,3.46,4.008,3.775,5.555.523,5.791,5.056,5.485,8.419A1.206,1.206,0,0,1,27.275,39.474Z" transform="translate(0 -3.142)"/></g></svg>