<svg xmlns="http://www.w3.org/2000/svg" width="49.53" height="49.524" viewBox="0 0 49.53 49.524"><defs><style>.a{opacity:0.3;}.b,.c{fill:none;stroke:#000;stroke-linecap:round;stroke-linejoin:round;}.b{stroke-miterlimit:2.613;}.c{stroke-miterlimit:10;}</style></defs><g class="a" transform="translate(-35.493 8.547) rotate(-30)"><path class="b" d="M52.87,28.949a17.579,17.579,0,1,1-24.023,6.434A17.568,17.568,0,0,1,52.87,28.949Z" transform="translate(0 0)"/><path class="b" d="M26.495,72.993a37.262,37.262,0,0,1,14.73,5.029,37.16,37.16,0,0,1,11.72,10.235m8.729-15.114a37.208,37.208,0,0,1-14.73-5.029,37.189,37.189,0,0,1-11.72-10.235" transform="translate(-0.007 -28.897)"/><path class="b" d="M122.754,49.378c4.351,2.509,3.938,11.357-.921,19.767s-12.317,13.19-16.665,10.677-3.938-11.358.921-19.767S118.407,46.869,122.754,49.378Z" transform="translate(-69.884 -20.429)"/><line class="b" x1="17.586" y2="30.445" transform="translate(35.285 28.949)"/><line class="b" x1="30.459" y1="17.577" transform="translate(28.848 35.382)"/><path class="c" d="M52.87,28.949a17.579,17.579,0,1,1-24.023,6.434A17.568,17.568,0,0,1,52.87,28.949Z" transform="translate(0 0)"/><path class="c" d="M122.754,49.378c4.351,2.509,3.938,11.357-.921,19.767s-12.317,13.19-16.665,10.677-3.938-11.358.921-19.767S118.407,46.869,122.754,49.378Z" transform="translate(-69.884 -20.429)"/><line class="b" x1="17.586" y2="30.445" transform="translate(35.285 28.949)"/><line class="b" x1="30.459" y1="17.577" transform="translate(28.848 35.382)"/><path class="b" d="M26.495,72.993a37.262,37.262,0,0,1,14.73,5.029,37.16,37.16,0,0,1,11.72,10.235m8.729-15.114a37.208,37.208,0,0,1-14.73-5.029,37.189,37.189,0,0,1-11.72-10.235" transform="translate(-0.007 -28.897)"/></g></svg>