<svg xmlns="http://www.w3.org/2000/svg" width="42.694" height="26.684" viewBox="0 0 42.694 26.684"><g transform="translate(0 -24)"><path d="M40.693,24H2a2,2,0,0,0-2,2V48.682a2,2,0,0,0,2,2H40.693a2,2,0,0,0,2-2V26A2,2,0,0,0,40.693,24ZM1.334,48.682V26A.668.668,0,0,1,2,25.334H33.355V49.35H2a.668.668,0,0,1-.667-.667Zm40.026,0a.668.668,0,0,1-.667.667h-6V25.334h6A.668.668,0,0,1,41.36,26Z" transform="translate(0 0)"/><path d="M44.689,47.008a2,2,0,1,0,2,2A2,2,0,0,0,44.689,47.008Zm0,2.668a.667.667,0,1,1,.667-.667A.667.667,0,0,1,44.689,49.677ZM44.355,38.67h.667a.667.667,0,1,0,0-1.334h-.667a.667.667,0,0,0,0,1.334Zm0,2.668h.667a.667.667,0,1,0,0-1.334h-.667a.667.667,0,1,0,0,1.334ZM36.684,34H11.334A1.334,1.334,0,0,0,10,35.334V52.679a1.334,1.334,0,0,0,1.334,1.334h7.485a9.785,9.785,0,0,1-1.763-1.334H11.334V35.334h25.35V52.679H30.295a9.785,9.785,0,0,1-1.763,1.334h8.152a1.334,1.334,0,0,0,1.334-1.334V35.334A1.334,1.334,0,0,0,36.684,34Z" transform="translate(-6.665 -6.665)"/><path d="M26.344,53.173a.993.993,0,0,0-.249.77,8.339,8.339,0,0,0,16.606,0,.993.993,0,0,0-.249-.77,1.007,1.007,0,0,0-.748-.335H27.092A1.007,1.007,0,0,0,26.344,53.173Zm8.055,7a6.974,6.974,0,0,1-5.925-3.335H40.323A6.974,6.974,0,0,1,34.4,60.176Zm6.926-6a7.3,7.3,0,0,1-.35,1.334H27.822a7.3,7.3,0,0,1-.35-1.334ZM33.4,51a.667.667,0,1,0,1.334,0,.579.579,0,0,1,.191-.435,1.906,1.906,0,0,0,0-2.521.579.579,0,0,1-.191-.435c0-.193.048-.254.191-.435a1.874,1.874,0,0,0,.477-1.26.667.667,0,0,0-1.334,0c0,.193-.048.254-.191.435a1.9,1.9,0,0,0,0,2.52.592.592,0,0,1,0,.871A1.875,1.875,0,0,0,33.4,51Zm-3,0a.667.667,0,1,0,1.334,0,.579.579,0,0,1,.191-.435,1.906,1.906,0,0,0,0-2.521.579.579,0,0,1-.191-.435c0-.193.048-.254.191-.435a1.874,1.874,0,0,0,.477-1.26.667.667,0,0,0-1.334,0c0,.193-.048.254-.191.435a1.9,1.9,0,0,0,0,2.52.592.592,0,0,1,0,.871A1.875,1.875,0,0,0,30.4,51Zm6,0a.667.667,0,1,0,1.334,0,.579.579,0,0,1,.191-.435,1.906,1.906,0,0,0,0-2.521.579.579,0,0,1-.191-.435c0-.193.048-.254.191-.435a1.874,1.874,0,0,0,.477-1.26.667.667,0,1,0-1.334,0c0,.193-.048.254-.191.435a1.9,1.9,0,0,0,0,2.52.592.592,0,0,1,0,.871A1.875,1.875,0,0,0,36.4,51Z" transform="translate(-17.387 -14.162)"/></g></svg>