<svg xmlns="http://www.w3.org/2000/svg" width="47.661" height="37.251" viewBox="0 0 47.661 37.251"><g transform="translate(0 0.001)"><g transform="translate(0 -0.001)"><path d="M47.661,20.2a.753.753,0,0,0-.753-.753H28.029a9.984,9.984,0,0,0,1.54-2.443c.191-.411,1.836-4.069.647-5.473C27.528,8.358,27.683.842,27.708.767A.753.753,0,0,0,26.931,0H21.994a.753.753,0,0,0-.753.773c0,.075.161,7.586-2.508,10.766-1.189,1.4.457,5.057.647,5.473a9.984,9.984,0,0,0,1.54,2.443H.753A.753.753,0,0,0,0,20.2v16.29a.753.753,0,1,0,1.505,0V29.1H46.156v7.4a.753.753,0,0,0,1.505,0Zm-27.8-7.691c2.534-2.98,2.86-8.89,2.89-11.007h3.432c.03,2.117.356,8.027,2.89,11,.231.346-.03,2.328-1.129,4.415C27.131,18.427,26.389,19,26.088,19H22.842c-.3,0-1.044-.557-1.851-2.082C19.887,14.835,19.626,12.848,19.857,12.512ZM1.505,27.593V20.955H46.156v6.637Z" transform="translate(0 0.001)"/></g></g></svg>