<svg xmlns="http://www.w3.org/2000/svg" width="44.457" height="28.682" viewBox="0 0 44.457 28.682"><defs><style>.a{fill:#004da4;}</style></defs><path class="a" d="M48.865,34.845l-8.506-2.868-4.2-7.714A6.454,6.454,0,0,0,30.518,20.9H15.188a6.4,6.4,0,0,0-5.637,3.363l-4.4,8.061v.049a.182.182,0,0,0-.049.148v.247h0V44.637a.992.992,0,0,0,.989.989h4.055a4.946,4.946,0,0,0,9.693,0H34.87a4.946,4.946,0,0,0,9.693,0h4.006a.992.992,0,0,0,.989-.989V35.785A.95.95,0,0,0,48.865,34.845ZM21.37,22.928h9.149a4.455,4.455,0,0,1,3.907,2.324l3.561,6.577H21.37ZM11.281,25.252a4.455,4.455,0,0,1,3.907-2.324h4.2v8.9H7.721ZM10.095,43.7H7.029V41.719h3.956A4.794,4.794,0,0,0,10.095,43.7Zm4.846,3.956a2.967,2.967,0,1,1,2.967-2.967A2.976,2.976,0,0,1,14.941,47.653Zm24.726,0a2.967,2.967,0,1,1,2.967-2.967A2.976,2.976,0,0,1,39.667,47.653ZM47.579,43.7H44.513a4.946,4.946,0,0,0-9.693,0H19.787a4.934,4.934,0,0,0-4.846-3.956H7.029V33.807h32.49l8.061,2.67Z" transform="translate(-5.1 -20.9)"/></svg>