<svg xmlns="http://www.w3.org/2000/svg" width="43.892" height="38.406" viewBox="0 0 43.892 38.406"><path d="M2.227,22.9,5.486,20.3V39.662a2.743,2.743,0,0,0,2.743,2.743h8.23A2.743,2.743,0,0,0,19.2,39.662V28.689h5.486V39.662a2.743,2.743,0,0,0,2.743,2.743h8.23A2.743,2.743,0,0,0,38.4,39.662V20.3L41.663,22.9a1.373,1.373,0,1,0,1.714-2.145L22.8,4.3a1.373,1.373,0,0,0-1.715,0l-7.374,5.9V6.744a2.743,2.743,0,0,0-5.486,0v7.843L.515,20.759A1.372,1.372,0,0,0,2.227,22.9ZM21.945,7.128,35.661,18.1V39.662h-8.23V25.946H16.459V39.662H8.229V18.1Z" transform="translate(-0.002 -3.999)"/></svg>