<svg xmlns="http://www.w3.org/2000/svg" width="46.357" height="46.357" viewBox="0 0 46.357 46.357"><path d="M46.391,21.323a.966.966,0,0,0-.966.966v9.332H43.712V28.479a2.9,2.9,0,0,0-2.9-2.9H33.608a2.9,2.9,0,0,0-2.9,2.9v3.142H11.44a6.1,6.1,0,0,0-6.1,6.1v3.107H1.966a.966.966,0,0,0,0,1.932h5.06v3.635a.966.966,0,1,0,1.932,0V42.756H39.4v3.635a.966.966,0,0,0,1.932,0V42.756h5.061a.966.966,0,0,0,.966-.966v-19.5A.965.965,0,0,0,46.391,21.323ZM32.642,28.479a.967.967,0,0,1,.966-.966h7.207a.967.967,0,0,1,.966.966v3.142H32.642ZM45.425,40.824H7.276V37.717a4.17,4.17,0,0,1,4.165-4.165H45.425v7.272ZM24.684,17.682a.966.966,0,0,0,0,1.932h1.722l-2.478,3.109a.965.965,0,0,0,.755,1.567H28.41a.966.966,0,0,0,0-1.932H26.688l2.478-3.109a.965.965,0,0,0-.755-1.567Zm7.722-6.353H36.15l-4.5,5.646a.965.965,0,0,0,.755,1.567h5.748a.966.966,0,0,0,0-1.932H34.41l4.5-5.646A.965.965,0,0,0,38.154,9.4H32.406a.966.966,0,1,0,0,1.932Zm-11.1-8.4h4.4L20.548,9.4a.965.965,0,0,0,.755,1.567h6.4a.966.966,0,0,0,0-1.932h-4.4l5.156-6.47A.965.965,0,0,0,27.708,1H21.3a.966.966,0,1,0,0,1.932Z" transform="translate(-1 -1)"/></svg>