<svg xmlns="http://www.w3.org/2000/svg" width="35.889" height="35.892" viewBox="0 0 35.889 35.892"><path d="M7.727,28.6V7.749L6.322,9.154A1.087,1.087,0,1,1,4.784,7.616L8.047,4.354a1.088,1.088,0,0,1,1.54,0l3.263,3.263a1.087,1.087,0,1,1-1.538,1.538L9.9,7.749V28.6l1.407-1.407A1.087,1.087,0,1,1,12.85,28.73L9.587,31.993a1.088,1.088,0,0,1-1.54,0L4.784,28.73a1.087,1.087,0,1,1,1.538-1.538Zm32.307,6.206-3.263-3.263a1.087,1.087,0,1,0-1.538,1.538l1.405,1.407H15.79L17.2,33.08a1.087,1.087,0,1,0-1.538-1.538L12.4,34.805a1.088,1.088,0,0,0,0,1.54l3.263,3.263A1.087,1.087,0,1,0,17.2,38.07L15.79,36.665H36.641L35.236,38.07a1.087,1.087,0,1,0,1.538,1.538l3.263-3.263a1.088,1.088,0,0,0,0-1.54Zm-.768-24.244a1.088,1.088,0,0,0-1.088,1.088v2.175a1.088,1.088,0,1,0,2.175,0V11.649A1.088,1.088,0,0,0,39.266,10.561Zm0,6.525a1.088,1.088,0,0,0-1.088,1.088v2.175a1.088,1.088,0,1,0,2.175,0V18.174A1.088,1.088,0,0,0,39.266,17.087ZM17.515,14.912A1.088,1.088,0,0,0,18.6,13.824V11.649a1.088,1.088,0,0,0-2.175,0v2.175A1.088,1.088,0,0,0,17.515,14.912Zm0,6.525A1.088,1.088,0,0,0,18.6,20.349V18.174a1.088,1.088,0,0,0-2.175,0v2.175A1.088,1.088,0,0,0,17.515,21.437ZM30.566,6.211h2.175a1.088,1.088,0,1,0,0-2.175H30.566a1.088,1.088,0,1,0,0,2.175Zm-6.525,0h2.175a1.088,1.088,0,0,0,0-2.175H24.04a1.088,1.088,0,1,0,0,2.175Zm6.525,21.751h2.175a1.088,1.088,0,1,0,0-2.175H30.566a1.088,1.088,0,1,0,0,2.175Zm-6.525,0h2.175a1.088,1.088,0,0,0,0-2.175H24.04a1.088,1.088,0,1,0,0,2.175ZM37.091,4.036a1.088,1.088,0,1,0,0,2.175A1.088,1.088,0,0,1,38.179,7.3a1.088,1.088,0,1,0,2.175,0A3.263,3.263,0,0,0,37.091,4.036ZM19.69,27.962a1.088,1.088,0,1,0,0-2.175A1.088,1.088,0,0,1,18.6,24.7a1.088,1.088,0,0,0-2.175,0A3.263,3.263,0,0,0,19.69,27.962Zm19.576-4.35A1.088,1.088,0,0,0,38.179,24.7a1.088,1.088,0,0,1-1.088,1.088,1.088,1.088,0,1,0,0,2.175A3.263,3.263,0,0,0,40.354,24.7,1.088,1.088,0,0,0,39.266,23.612ZM17.515,8.386A1.088,1.088,0,0,0,18.6,7.3,1.088,1.088,0,0,1,19.69,6.211a1.088,1.088,0,1,0,0-2.175A3.263,3.263,0,0,0,16.428,7.3,1.088,1.088,0,0,0,17.515,8.386Z" transform="translate(-4.466 -4.034)"/></svg>