<svg xmlns="http://www.w3.org/2000/svg" width="16.865" height="32.433" viewBox="0 0 16.865 32.433"><g transform="translate(-19 -7)"><path d="M35.217,32.946h-.649V7.649A.649.649,0,0,0,33.919,7H20.946a.649.649,0,0,0-.649.649v25.3h-.649A.649.649,0,0,0,19,33.6v5.189a.649.649,0,0,0,.649.649H35.217a.649.649,0,0,0,.649-.649V33.6A.649.649,0,0,0,35.217,32.946ZM21.595,8.3H33.271V32.946H21.595ZM34.568,38.136H20.3V34.244H34.568Z"/><path d="M26.946,27a1.946,1.946,0,1,0,1.946,1.946A1.946,1.946,0,0,0,26.946,27Zm0,2.595a.649.649,0,1,1,.649-.649A.649.649,0,0,1,26.946,29.595Z" transform="translate(-2.108 -7.027)"/></g></svg>