<svg xmlns="http://www.w3.org/2000/svg" width="25.827" height="36" viewBox="0 0 25.827 36"><defs><style>.a{fill:#004da4;}</style></defs><path class="a" d="M41.363,20.76,31.283,5.36a.822.822,0,0,0-1.36,0l-10.08,15.4A12.994,12.994,0,0,0,19.163,34a12.773,12.773,0,0,0,10.8,7h1.28A12.592,12.592,0,0,0,42,34.04,13.152,13.152,0,0,0,41.363,20.76ZM40.6,33.28a11.139,11.139,0,0,1-9.4,6.12h-1.16a11.149,11.149,0,0,1-9.44-6.12,11.459,11.459,0,0,1,.6-11.64l9.4-14.4L40,21.64A11.459,11.459,0,0,1,40.6,33.28Z" transform="translate(-17.672 -5)"/></svg>