<svg xmlns="http://www.w3.org/2000/svg" width="31.999" height="22" viewBox="0 0 31.999 22"><g transform="translate(-9.263 -13.483)"><path d="M11.016,21.884a19.055,19.055,0,0,1,28.494,0,1,1,0,0,0,1.506-1.314,21.052,21.052,0,0,0-31.506,0,1,1,0,1,0,1.506,1.316Z"/><path d="M35.367,25.849a1,1,0,0,0,1.551-1.262,15.113,15.113,0,0,0-23.31,0,1,1,0,0,0,1.551,1.263,13.112,13.112,0,0,1,20.208,0Z"/><path d="M31.124,29.723a1,1,0,0,0,1.641-1.145,9.2,9.2,0,0,0-15.066.09,1,1,0,0,0,1.655,1.125,7.2,7.2,0,0,1,11.77-.07Z"/><ellipse cx="2" cy="1.969" rx="2" ry="1.969" transform="translate(23.263 31.545)"/></g></svg>